<svg viewBox="0 0 100 100" xmlns="http://www.w3.org/2000/svg">
  <path fill="#1A1A1A" d="M50 0 L51 43 L50 48 L49 43 Z M50 100 L49 57 L50 52 L51 57 Z M0 50 L43 49 L48 50 L43 51 Z M100 50 L57 51 L52 50 L57 49 Z M14.6 14.6 L43 46 L48 50 L46 43 Z M85.4 85.4 L57 54 L52 50 L54 57 Z M85.4 14.6 L54 43 L52 50 L57 46 Z M14.6 85.4 L46 57 L50 52 L43 54 Z M29.3 4.3 L47 43 L50 50 L45 45 Z M70.7 95.7 L53 57 L50 50 L55 55 Z M95.7 29.3 L57 47 L50 50 L55 45 Z M4.3 70.7 L43 53 L50 50 L45 55 Z M4.3 29.3 L43 47 L50 50 L45 45 Z M95.7 70.7 L57 53 L50 50 L55 55 Z M29.3 95.7 L47 57 L50 50 L45 55 Z M70.7 4.3 L53 43 L50 50 L55 45 Z"/>
</svg>
